<?xml version="1.0" encoding="UTF-8" standalone="no"?>
<svg
   xmlns:dc="http://purl.org/dc/elements/1.1/"
   xmlns:cc="http://creativecommons.org/ns#"
   xmlns:rdf="http://www.w3.org/1999/02/22-rdf-syntax-ns#"
   xmlns:svg="http://www.w3.org/2000/svg"
   xmlns="http://www.w3.org/2000/svg"
   xmlns:sodipodi="http://sodipodi.sourceforge.net/DTD/sodipodi-0.dtd"
   xmlns:inkscape="http://www.inkscape.org/namespaces/inkscape"
   width="152.29172mm"
   height="71.470383mm"
   viewBox="0 0 152.29172 71.470382"
   version="1.1"
   id="svg8"
   inkscape:version="1.0.1 (3bc2e813f5, 2020-09-07)"
   sodipodi:docname="logo.svg">
  <defs
     id="defs2" />
  <sodipodi:namedview
     id="base"
     pagecolor="#ffffff"
     bordercolor="#666666"
     borderopacity="1.0"
     inkscape:pageopacity="0.0"
     inkscape:pageshadow="2"
     inkscape:zoom="1.4"
     inkscape:cx="190.75786"
     inkscape:cy="125.37782"
     inkscape:document-units="px"
     inkscape:current-layer="layer1"
     inkscape:document-rotation="0"
     showgrid="false"
     fit-margin-top="10"
     fit-margin-left="10"
     fit-margin-right="10"
     fit-margin-bottom="10"
     inkscape:window-width="1920"
     inkscape:window-height="1137"
     inkscape:window-x="-8"
     inkscape:window-y="-8"
     inkscape:window-maximized="1"
     lock-margins="true" />
  <metadata
     id="metadata5">
    <rdf:RDF>
      <cc:Work
         rdf:about="">
        <dc:format>image/svg+xml</dc:format>
        <dc:type
           rdf:resource="http://purl.org/dc/dcmitype/StillImage" />
        <dc:title></dc:title>
      </cc:Work>
    </rdf:RDF>
  </metadata>
  <g
     inkscape:label="Layer 1"
     inkscape:groupmode="layer"
     id="layer1"
     transform="translate(-5.3822031,-35.49701)">
    <g
       aria-label="ran"
       id="text835"
       style="font-style:normal;font-variant:normal;font-weight:600;font-stretch:normal;font-size:21.2008px;line-height:1.25;font-family:'Open Sans';-inkscape-font-specification:'Open Sans Semi-Bold';letter-spacing:0px;word-spacing:0px;fill:#000000;fill-opacity:1;stroke:none;stroke-width:0.53002">
      <path
         d="m 59.202366,58.30296 q 0.734989,0 1.211179,0.103519 l -0.238095,2.267078 q -0.517598,-0.124223 -1.076603,-0.124223 -1.459626,0 -2.370598,0.952379 -0.90062,0.95238 -0.90062,2.474117 v 5.983429 H 53.39492 v -11.44926 h 1.90476 l 0.32091,2.018631 h 0.124224 q 0.569357,-1.024844 1.480329,-1.625257 0.921324,-0.600413 1.977223,-0.600413 z"
         style="font-style:normal;font-variant:normal;font-weight:600;font-stretch:normal;font-family:'Open Sans';-inkscape-font-specification:'Open Sans Semi-Bold';stroke-width:0.53002"
         id="path881" />
      <path
         d="m 69.699247,69.959259 -0.486542,-1.594201 h -0.08282 q -0.828156,1.045548 -1.666664,1.42857 -0.838508,0.37267 -2.153206,0.37267 -1.687369,0 -2.639749,-0.910972 -0.942027,-0.910972 -0.942027,-2.577636 0,-1.770184 1.314698,-2.670804 1.314698,-0.90062 4.006206,-0.983436 l 1.977223,-0.06211 v -0.610765 q 0,-1.097308 -0.517598,-1.635609 -0.507246,-0.548654 -1.583849,-0.548654 -0.879916,0 -1.687368,0.258799 -0.807452,0.258799 -1.552793,0.610765 l -0.786749,-1.739128 q 0.931676,-0.486541 2.039335,-0.734988 1.107659,-0.258799 2.091095,-0.258799 2.184262,0 3.291921,0.95238 1.118011,0.952379 1.118011,2.991714 v 7.712205 z m -3.623184,-1.656312 q 1.32505,0 2.12215,-0.734989 0.807453,-0.745341 0.807453,-2.080743 v -0.993787 l -1.469978,0.06211 q -1.718424,0.06211 -2.505172,0.579709 -0.776397,0.507246 -0.776397,1.563145 0,0.766044 0.455486,1.190474 0.455486,0.414079 1.366458,0.414079 z"
         style="font-style:normal;font-variant:normal;font-weight:600;font-stretch:normal;font-family:'Open Sans';-inkscape-font-specification:'Open Sans Semi-Bold';stroke-width:0.53002"
         id="path883" />
      <path
         d="m 84.906267,69.959259 h -2.443061 v -7.039328 q 0,-1.32505 -0.538302,-1.977223 -0.527949,-0.652173 -1.687368,-0.652173 -1.542441,0 -2.256726,0.910972 -0.714284,0.910972 -0.714284,3.053826 v 5.703926 h -2.432709 v -11.44926 h 1.904759 l 0.341614,1.501033 h 0.124224 q 0.517597,-0.817804 1.469977,-1.262938 0.95238,-0.445134 2.111799,-0.445134 4.120077,0 4.120077,4.192541 z"
         style="font-style:normal;font-variant:normal;font-weight:600;font-stretch:normal;font-family:'Open Sans';-inkscape-font-specification:'Open Sans Semi-Bold';stroke-width:0.53002"
         id="path885" />
    </g>
    <g
       aria-label="ngineering"
       id="text839"
       style="font-style:normal;font-variant:normal;font-weight:600;font-stretch:normal;font-size:21.2008px;line-height:1.25;font-family:'Open Sans';-inkscape-font-specification:'Open Sans Semi-Bold';letter-spacing:0px;word-spacing:0px;fill:#000000;fill-opacity:1;stroke:none;stroke-width:0.53002">
      <path
         d="m 50.520834,91.874229 h -2.443061 v -7.039328 q 0,-1.32505 -0.538302,-1.977223 -0.527949,-0.652173 -1.687368,-0.652173 -1.542441,0 -2.256726,0.910972 -0.714285,0.910972 -0.714285,3.053826 v 5.703926 h -2.432709 v -11.44926 h 1.90476 l 0.341614,1.501034 h 0.124224 q 0.517597,-0.817805 1.469977,-1.262939 0.95238,-0.445134 2.111798,-0.445134 4.120078,0 4.120078,4.192541 z"
         style="font-style:normal;font-variant:normal;font-weight:600;font-stretch:normal;font-family:'Open Sans';-inkscape-font-specification:'Open Sans Semi-Bold';stroke-width:0.53002"
         id="path888" />
      <path
         d="m 63.574646,80.424969 v 1.335402 l -1.956519,0.362319 q 0.269151,0.362318 0.445134,0.890268 0.175983,0.527949 0.175983,1.118011 0,1.770183 -1.22153,2.784675 -1.221531,1.014491 -3.364385,1.014491 -0.548654,0 -0.993788,-0.08282 -0.786748,0.486541 -0.786748,1.138715 0,0.393374 0.362318,0.590061 0.372671,0.196687 1.356106,0.196687 h 1.997927 q 1.894408,0 2.877843,0.807452 0.983436,0.807453 0.983436,2.32919 0,1.946167 -1.604553,3.002066 -1.604553,1.055899 -4.637675,1.055899 -2.339541,0 -3.571424,-0.828156 -1.231882,-0.828156 -1.231882,-2.360245 0,-1.055899 0.662525,-1.780536 0.672877,-0.714285 1.873703,-0.993788 -0.486542,-0.207039 -0.807452,-0.662525 -0.310559,-0.465838 -0.310559,-0.973083 0,-0.641821 0.362319,-1.086955 0.362318,-0.445134 1.076603,-0.879916 -0.890268,-0.383023 -1.449274,-1.242235 -0.548653,-0.869564 -0.548653,-2.028982 0,-1.863352 1.169771,-2.888195 1.180122,-1.024844 3.354032,-1.024844 0.486542,0 1.014492,0.07246 0.538301,0.06211 0.807452,0.134575 z m -8.995847,13.229796 q 0,0.786749 0.703933,1.211179 0.714284,0.42443 1.997927,0.42443 1.987575,0 2.960658,-0.569357 0.973084,-0.569358 0.973084,-1.511386 0,-0.74534 -0.538302,-1.066251 -0.527949,-0.310558 -1.977223,-0.310558 h -1.842647 q -1.045548,0 -1.666665,0.486541 -0.610765,0.496894 -0.610765,1.335402 z m 1.045547,-9.523796 q 0,1.076603 0.548654,1.656312 0.559005,0.579709 1.5942,0.579709 2.111799,0 2.111799,-2.256725 0,-1.118011 -0.52795,-1.718425 -0.517597,-0.610765 -1.583849,-0.610765 -1.055899,0 -1.604552,0.600413 -0.538302,0.600414 -0.538302,1.749481 z"
         style="font-style:normal;font-variant:normal;font-weight:600;font-stretch:normal;font-family:'Open Sans';-inkscape-font-specification:'Open Sans Semi-Bold';stroke-width:0.53002"
         id="path890" />
      <path
         d="m 68.129505,91.874229 h -2.432709 v -11.44926 h 2.432709 z M 65.551869,77.391847 q 0,-0.652173 0.351966,-1.004139 0.362319,-0.351967 1.024844,-0.351967 0.641821,0 0.993787,0.351967 0.362319,0.351966 0.362319,1.004139 0,0.621117 -0.362319,0.983436 -0.351966,0.351966 -0.993787,0.351966 -0.662525,0 -1.024844,-0.351966 -0.351966,-0.362319 -0.351966,-0.983436 z"
         style="font-style:normal;font-variant:normal;font-weight:600;font-stretch:normal;font-family:'Open Sans';-inkscape-font-specification:'Open Sans Semi-Bold';stroke-width:0.53002"
         id="path892" />
      <path
         d="m 81.680212,91.874229 h -2.443061 v -7.039328 q 0,-1.32505 -0.538302,-1.977223 -0.527949,-0.652173 -1.687368,-0.652173 -1.542441,0 -2.256726,0.910972 -0.714285,0.910972 -0.714285,3.053826 v 5.703926 h -2.432709 v -11.44926 h 1.90476 l 0.341614,1.501034 h 0.124224 q 0.517597,-0.817805 1.469977,-1.262939 0.95238,-0.445134 2.111798,-0.445134 4.120078,0 4.120078,4.192541 z"
         style="font-style:normal;font-variant:normal;font-weight:600;font-stretch:normal;font-family:'Open Sans';-inkscape-font-specification:'Open Sans Semi-Bold';stroke-width:0.53002"
         id="path894" />
      <path
         d="m 90.065293,92.081268 q -2.670804,0 -4.182189,-1.552792 -1.501033,-1.563145 -1.501033,-4.296061 0,-2.805379 1.397514,-4.409932 1.397513,-1.604553 3.840574,-1.604553 2.267078,0 3.581776,1.37681 1.314698,1.37681 1.314698,3.788815 v 1.314698 h -7.629389 q 0.05176,1.666664 0.90062,2.567284 0.84886,0.890268 2.391301,0.890268 1.014491,0 1.884055,-0.186335 0.879916,-0.196687 1.884056,-0.641821 v 1.977223 q -0.890268,0.42443 -1.80124,0.600413 -0.910972,0.175983 -2.080743,0.175983 z m -0.445134,-10.02069 q -1.159418,0 -1.863351,0.734989 -0.693581,0.734988 -0.828156,2.142854 h 5.19668 q -0.0207,-1.418218 -0.683229,-2.142854 -0.662525,-0.734989 -1.821944,-0.734989 z"
         style="font-style:normal;font-variant:normal;font-weight:600;font-stretch:normal;font-family:'Open Sans';-inkscape-font-specification:'Open Sans Semi-Bold';stroke-width:0.53002"
         id="path896" />
      <path
         d="m 102.2806,92.081268 q -2.670805,0 -4.18219,-1.552792 -1.501034,-1.563145 -1.501034,-4.296061 0,-2.805379 1.397514,-4.409932 1.397514,-1.604553 3.84057,-1.604553 2.26708,0 3.58178,1.37681 1.3147,1.37681 1.3147,3.788815 v 1.314698 h -7.629391 q 0.05176,1.666664 0.900621,2.567284 0.84886,0.890268 2.3913,0.890268 1.01449,0 1.88406,-0.186335 0.87991,-0.196687 1.88405,-0.641821 v 1.977223 q -0.89027,0.42443 -1.80124,0.600413 -0.91097,0.175983 -2.08074,0.175983 z m -0.44514,-10.02069 q -1.15941,0 -1.863347,0.734989 -0.693581,0.734988 -0.828156,2.142854 h 5.196683 q -0.0207,-1.418218 -0.68323,-2.142854 -0.66253,-0.734989 -1.82195,-0.734989 z"
         style="font-style:normal;font-variant:normal;font-weight:600;font-stretch:normal;font-family:'Open Sans';-inkscape-font-specification:'Open Sans Semi-Bold';stroke-width:0.53002"
         id="path898" />
      <path
         d="m 115.30335,80.21793 q 0.73499,0 1.21118,0.10352 l -0.23809,2.267078 q -0.5176,-0.124224 -1.07661,-0.124224 -1.45962,0 -2.37059,0.95238 -0.90062,0.952379 -0.90062,2.474117 v 5.983428 h -2.43271 v -11.44926 h 1.90476 l 0.32091,2.018631 h 0.12422 q 0.56936,-1.024843 1.48033,-1.625256 0.92132,-0.600414 1.97722,-0.600414 z"
         style="font-style:normal;font-variant:normal;font-weight:600;font-stretch:normal;font-family:'Open Sans';-inkscape-font-specification:'Open Sans Semi-Bold';stroke-width:0.53002"
         id="path900" />
      <path
         d="m 121.06939,91.874229 h -2.43271 v -11.44926 h 2.43271 z m -2.57763,-14.482382 q 0,-0.652173 0.35196,-1.004139 0.36232,-0.351967 1.02485,-0.351967 0.64182,0 0.99378,0.351967 0.36232,0.351966 0.36232,1.004139 0,0.621117 -0.36232,0.983436 -0.35196,0.351966 -0.99378,0.351966 -0.66253,0 -1.02485,-0.351966 -0.35196,-0.362319 -0.35196,-0.983436 z"
         style="font-style:normal;font-variant:normal;font-weight:600;font-stretch:normal;font-family:'Open Sans';-inkscape-font-specification:'Open Sans Semi-Bold';stroke-width:0.53002"
         id="path902" />
      <path
         d="m 134.6201,91.874229 h -2.44306 v -7.039328 q 0,-1.32505 -0.5383,-1.977223 -0.52795,-0.652173 -1.68737,-0.652173 -1.54244,0 -2.25673,0.910972 -0.71428,0.910972 -0.71428,3.053826 v 5.703926 h -2.43271 v -11.44926 h 1.90476 l 0.34161,1.501034 h 0.12423 q 0.51759,-0.817805 1.46997,-1.262939 0.95238,-0.445134 2.1118,-0.445134 4.12008,0 4.12008,4.192541 z"
         style="font-style:normal;font-variant:normal;font-weight:600;font-stretch:normal;font-family:'Open Sans';-inkscape-font-specification:'Open Sans Semi-Bold';stroke-width:0.53002"
         id="path904" />
      <path
         d="m 147.67392,80.424969 v 1.335402 l -1.95652,0.362319 q 0.26915,0.362318 0.44513,0.890268 0.17598,0.527949 0.17598,1.118011 0,1.770183 -1.22153,2.784675 -1.22153,1.014491 -3.36438,1.014491 -0.54865,0 -0.99379,-0.08282 -0.78675,0.486541 -0.78675,1.138715 0,0.393374 0.36232,0.590061 0.37267,0.196687 1.35611,0.196687 h 1.99792 q 1.89441,0 2.87785,0.807452 0.98343,0.807453 0.98343,2.32919 0,1.946167 -1.60455,3.002066 -1.60455,1.055899 -4.63768,1.055899 -2.33954,0 -3.57142,-0.828156 -1.23188,-0.828156 -1.23188,-2.360245 0,-1.055899 0.66252,-1.780536 0.67288,-0.714285 1.87371,-0.993788 -0.48654,-0.207039 -0.80746,-0.662525 -0.31055,-0.465838 -0.31055,-0.973083 0,-0.641821 0.36231,-1.086955 0.36232,-0.445134 1.07661,-0.879916 -0.89027,-0.383023 -1.44928,-1.242235 -0.54865,-0.869564 -0.54865,-2.028982 0,-1.863352 1.16977,-2.888195 1.18012,-1.024844 3.35403,-1.024844 0.48655,0 1.0145,0.07246 0.5383,0.06211 0.80745,0.134575 z m -8.99585,13.229796 q 0,0.786749 0.70393,1.211179 0.71429,0.42443 1.99793,0.42443 1.98757,0 2.96066,-0.569357 0.97308,-0.569358 0.97308,-1.511386 0,-0.74534 -0.5383,-1.066251 -0.52795,-0.310558 -1.97722,-0.310558 h -1.84265 q -1.04555,0 -1.66667,0.486541 -0.61076,0.496894 -0.61076,1.335402 z m 1.04555,-9.523796 q 0,1.076603 0.54865,1.656312 0.55901,0.579709 1.5942,0.579709 2.1118,0 2.1118,-2.256725 0,-1.118011 -0.52795,-1.718425 -0.5176,-0.610765 -1.58385,-0.610765 -1.0559,0 -1.60455,0.600413 -0.5383,0.600414 -0.5383,1.749481 z"
         style="font-style:normal;font-variant:normal;font-weight:600;font-stretch:normal;font-family:'Open Sans';-inkscape-font-specification:'Open Sans Semi-Bold';stroke-width:0.53002"
         id="path906" />
    </g>
    <g
       aria-label="t"
       id="text835-1"
       style="font-style:normal;font-variant:normal;font-weight:600;font-stretch:normal;font-size:37.1962px;line-height:1.25;font-family:'Open Sans';-inkscape-font-specification:'Open Sans Semi-Bold';letter-spacing:0px;word-spacing:0px;fill:#000000;fill-opacity:1;stroke:none;stroke-width:0.9299">
      <path
         d="m 47.991211,66.964739 q 1.56195,0 3.1239,-0.490379 v 3.214711 q -0.708326,0.308757 -1.834383,0.508541 -1.107895,0.217947 -2.306601,0.217947 -6.066177,0 -6.066177,-6.393097 V 53.197786 h -2.742493 v -1.88887 l 2.942277,-1.561949 1.452977,-4.249957 h 2.63352 v 4.467903 h 5.721095 v 3.232873 h -5.721095 v 10.752027 q 0,1.543788 0.762813,2.288438 0.780975,0.726488 2.034167,0.726488 z"
         style="font-style:normal;font-variant:normal;font-weight:600;font-stretch:normal;font-family:'Open Sans';-inkscape-font-specification:'Open Sans Semi-Bold';stroke-width:0.9299"
         id="path909" />
    </g>
    <g
       aria-label="e"
       id="text839-1"
       style="font-style:normal;font-variant:normal;font-weight:600;font-stretch:normal;font-size:47.0404px;line-height:1.25;font-family:'Open Sans';-inkscape-font-specification:'Open Sans Semi-Bold';letter-spacing:0px;word-spacing:0px;fill:#000000;fill-opacity:1;stroke:none;stroke-width:1.17602">
      <path
         d="m 27.992154,91.913984 q -5.925988,0 -9.279454,-3.445342 -3.330497,-3.468311 -3.330497,-9.532112 0,-6.224585 3.100808,-9.784771 3.100807,-3.560187 8.521479,-3.560187 5.030199,0 7.947255,3.05487 2.917056,3.05487 2.917056,8.406634 v 2.917056 H 20.940688 q 0.114845,3.698 1.998298,5.696299 1.883454,1.975329 5.305827,1.975329 2.250957,0 4.180348,-0.413441 1.95236,-0.43641 4.180348,-1.424075 v 4.387069 q -1.975329,0.941727 -3.996596,1.332199 -2.021268,0.390472 -4.616759,0.390472 z M 27.00449,69.680044 q -2.572522,0 -4.134411,1.630795 -1.538919,1.630796 -1.837515,4.754572 h 11.530411 q -0.04594,-3.146745 -1.515951,-4.754572 -1.470012,-1.630795 -4.042534,-1.630795 z"
         style="font-style:normal;font-variant:normal;font-weight:600;font-stretch:normal;font-family:'Open Sans';-inkscape-font-specification:'Open Sans Semi-Bold';stroke-width:1.17602"
         id="path912" />
    </g>
  </g>
</svg>
